<?xml version="1.0" encoding="iso-8859-1"?>
<!-- Generator: Adobe Illustrator 17.1.0, SVG Export Plug-In . SVG Version: 6.00 Build 0)  -->
<!DOCTYPE svg PUBLIC "-//W3C//DTD SVG 1.0//EN" "http://www.w3.org/TR/2001/REC-SVG-20010904/DTD/svg10.dtd">
<svg version="1.0" id="Outline_Icons" xmlns="http://www.w3.org/2000/svg" xmlns:xlink="http://www.w3.org/1999/xlink" x="0px"
	 y="0px" width="24px" height="24px" viewBox="0 0 24 24" style="enable-background:new 0 0 24 24;" xml:space="preserve">
<g>
	<path style="fill:none;stroke:#000000;stroke-linecap:round;stroke-linejoin:round;stroke-miterlimit:10;" d="M13.5,0.5
		c0,0,0,5,0,6.5s0.25,1.75,1,2.5s2,2,2,4s0,9,0,9c0,0.55-0.45,1-1,1h-7c-0.55,0-1-0.45-1-1c0,0,0-7,0-9s1.25-3.25,2-4s1-1,1-2.5
		s0-6.5,0-6.5"/>
	
		<rect x="7.5" y="14.5" style="fill:none;stroke:#000000;stroke-linecap:round;stroke-linejoin:round;stroke-miterlimit:10;" width="9" height="5"/>
	
		<rect x="10.5" y="0.5" style="fill:none;stroke:#000000;stroke-linecap:round;stroke-linejoin:round;stroke-miterlimit:10;" width="3" height="3"/>
</g>
</svg>
