<svg xmlns="http://www.w3.org/2000/svg" width="24" height="24" viewBox="0 0 24 24"><g stroke="#000" stroke-linejoin="round" stroke-miterlimit="10" fill="none"><path d="M14.938 16.139c1.886-1.885-5.186-8.956-7.071-7.07-1.414 4.95-4.755 7.532-7.081 9.903-.384.392-.381 1.02.007 1.407l2.828 2.828c.188.188.444.294.711.293s.521-.109.709-.298c2.307-2.343 4.948-5.648 9.897-7.063zM10.696 18.261c.219.522.635 1.343 1.061 1.769 1.757 1.756 4.606 1.756 6.363 0 1.204-1.204 1.361-2.305 1.35-2.86.67-.172 1.309-.505 1.833-1.03 1.562-1.561 1.562-4.094 0-5.656-.461-.46-1.009-.768-1.589-.957.257-1.404-.154-2.907-1.24-3.993-1.086-1.085-2.588-1.495-3.992-1.239-.189-.579-.497-1.128-.957-1.588-1.563-1.563-4.095-1.563-5.657 0-.525.522-.858 1.159-1.03 1.83-.556-.012-1.656.146-2.859 1.35-1.758 1.757-1.758 4.605 0 6.364.425.425 1.245.841 1.768 1.061"/><path stroke-linecap="round" d="M16.265 18.397c-.672-.501-1.107-1.303-1.107-2.206 0-.983.517-1.847 1.294-2.332M5.609 7.753c.501.673 1.303 1.108 2.205 1.108.984 0 1.848-.517 2.333-1.294M14.128 12.714l-3.078 3.071M11.321 9.899l-3.1 3.058"/></g></svg>