<svg xmlns="http://www.w3.org/2000/svg" width="24" height="24" viewBox="0 0 24 24"><g stroke="#000" stroke-linejoin="round" stroke-miterlimit="10" fill="none"><path d="M18.369 11.387c-.379-2.724-2.16-3.484-4.751-3.117-2.861.407-5.214 8.02-7.063 10.396-2.021 2.6-4.693 1.798-5.74 1.905-.126.014-.235.094-.285.21-.051.116-.035.25.041.352.597.794 2.53 2.367 5.686 2.367 4.945 0 12.589-8.682 12.112-12.113zM13.618 8.27s2.952-4.213 5.437-2.619c2.484 1.595-.686 5.736-.686 5.736"/><path stroke-linecap="round" d="M6.555 18.666l2 1M5.555 19.666l.5 1.5M19.129 5.7l3.426-4.503"/></g></svg>