<?xml version="1.0" encoding="utf-8"?>
<!-- Generator: Adobe Illustrator 19.1.0, SVG Export Plug-In . SVG Version: 6.00 Build 0)  -->
<svg version="1.1" id="Elementos" xmlns="http://www.w3.org/2000/svg" xmlns:xlink="http://www.w3.org/1999/xlink" x="0px" y="0px"
	 viewBox="0 0 200 44" style="enable-background:new 0 0 200 44;" xml:space="preserve">
<style type="text/css">
	.st0{fill:#FFFFFF;}
	.st1{fill:url(#SVGID_5_);}
	.st2{clip-path:url(#SVGID_34_);}
	.st3{opacity:0.1;clip-path:url(#SVGID_34_);}
	.st4{fill:#0D1016;}
	.st5{fill:#414141;}
	.st6{opacity:0.5;clip-path:url(#SVGID_43_);fill:#F65275;}
	.st7{fill:none;stroke:#F65275;stroke-width:2;stroke-miterlimit:10;}
	.st8{fill:none;stroke:#FFFFFF;stroke-width:2.4138;stroke-miterlimit:10;}
	.st9{fill:#F7F6F4;}
	.st10{fill:#053385;}
	.st11{fill:#199DDB;}
	.st12{opacity:0.1216;}
	.st13{fill:#4361C3;}
	.st14{fill:#F28427;}
	.st15{fill:#EC2029;}
	.st16{opacity:5.098039e-02;}
	.st17{fill:url(#SVGID_46_);}
	.st18{fill:#F9F9F9;}
	.st19{fill:#09599E;}
	.st20{fill:#E59703;}
	.st21{fill:#00589F;}
	.st22{fill:#F9A51A;}
	.st23{fill:#F65275;}
	.st24{fill:none;stroke:#FFFFFF;stroke-width:2;stroke-miterlimit:10;}
	.st25{fill:none;stroke:#FFFFFF;stroke-miterlimit:10;}
	.st26{fill:none;stroke:#FFFFFF;stroke-width:2.9132;stroke-miterlimit:10;}
	.st27{fill:url(#SVGID_49_);}
	.st28{clip-path:url(#SVGID_51_);}
	.st29{fill:none;stroke:#F65275;stroke-width:2.4;stroke-miterlimit:10;}
	.st30{fill:none;stroke:#FFFFFF;stroke-width:1.25;stroke-miterlimit:10;}
	.st31{fill:url(#SVGID_56_);}
	.st32{opacity:0.5;clip-path:url(#SVGID_58_);fill:#F65275;}
	.st33{fill:none;stroke:#F65275;stroke-miterlimit:10;}
	.st34{fill-rule:evenodd;clip-rule:evenodd;fill:#0D1016;}
	.st35{fill:#FA5361;}
	.st36{fill:url(#SVGID_68_);}
	.st37{fill:url(#SVGID_69_);}
	.st38{fill:none;stroke:#FFFFFF;stroke-width:0.9069;stroke-miterlimit:10;}
	.st39{fill:none;stroke:#0D1016;stroke-miterlimit:10;}
	.st40{fill:none;stroke:#000000;stroke-linecap:round;stroke-linejoin:round;stroke-miterlimit:10;}
	.st41{fill:none;stroke:#231F20;stroke-linecap:round;stroke-linejoin:round;stroke-miterlimit:10;}
	.st42{fill:none;stroke:#FA5361;stroke-miterlimit:10;}
	.st43{fill:none;stroke:#0D1016;stroke-width:1.2;stroke-miterlimit:10;}
	.st44{fill:none;stroke:#000000;stroke-width:1.2;stroke-linecap:round;stroke-linejoin:round;stroke-miterlimit:10;}
	.st45{fill:none;stroke:#231F20;stroke-width:1.2;stroke-linecap:round;stroke-linejoin:round;stroke-miterlimit:10;}
	.st46{opacity:0.5;clip-path:url(#SVGID_76_);fill:#FA5361;stroke:#B71A2D;stroke-miterlimit:10;}
	.st47{fill:none;stroke:#FFFFFF;stroke-width:2.8966;stroke-miterlimit:10;}
	.st48{fill:none;stroke:#FFFFFF;stroke-width:3.4958;stroke-miterlimit:10;}
	.st49{fill:url(#SVGID_77_);}
	.st50{opacity:0.5;clip-path:url(#SVGID_79_);fill:#F65275;stroke:#F65275;stroke-miterlimit:10;}
	.st51{fill:url(#SVGID_80_);}
	.st52{fill:none;stroke:#2E93C7;stroke-miterlimit:10;}
	.st53{opacity:0.5;fill:#FFFFFF;}
	.st54{fill:#2E93C7;}
	.st55{fill:none;stroke:#2E93C7;stroke-width:2;stroke-miterlimit:10;}
	.st56{fill:none;stroke:#FFFFFF;stroke-width:0.9093;stroke-miterlimit:10;}
	.st57{opacity:0.5;clip-path:url(#SVGID_87_);fill:#F65275;stroke:#F65275;stroke-miterlimit:10;}
	.st58{fill:url(#SVGID_88_);}
	.st59{opacity:0.5;clip-path:url(#SVGID_92_);fill:#F65275;}
	.st60{fill:#3B5998;}
	.st61{fill:#E24B44;}
	.st62{clip-path:url(#SVGID_93_);fill:#E24B44;}
	.st63{clip-path:url(#SVGID_94_);fill:#E24B44;}
	.st64{clip-path:url(#SVGID_95_);fill:#E24B44;}
	.st65{clip-path:url(#SVGID_96_);fill:#E24B44;}
	.st66{fill:url(#SVGID_97_);}
	.st67{fill:#22BC26;}
	.st68{opacity:0.6;fill:#FFFFFF;}
	.st69{fill:url(#SVGID_103_);}
	.st70{fill:url(#SVGID_104_);}
	.st71{fill:url(#SVGID_105_);}
	.st72{clip-path:url(#SVGID_106_);fill:#E24B44;}
	.st73{clip-path:url(#SVGID_107_);fill:#E24B44;}
	.st74{clip-path:url(#SVGID_108_);fill:#E24B44;}
	.st75{clip-path:url(#SVGID_109_);fill:#E24B44;}
	.st76{fill:url(#SVGID_110_);}
	.st77{fill:url(#SVGID_111_);}
	.st78{fill:url(#SVGID_112_);}
	.st79{fill:url(#SVGID_113_);}
	.st80{fill:url(#SVGID_114_);}
	.st81{fill:none;}
</style>
<path class="st81" d="M22.8,22.7c-1-1.2-2.2-2.2-3.5-2.8c-1.6-0.8-3.3-1.2-5.2-1.2c-3.3,0-6.2,1.2-8.6,3.6C3.2,24.6,2,27.6,2,30.9
	c0,3.4,1.2,6.4,3.5,8.8c2.3,2.4,5.2,3.6,8.5,3.6c1.9,0,3.6-0.4,5.2-1.2c1.3-0.6,2.5-1.6,3.6-2.7v3.3h3.6V10.4h-3.6V22.7z M20.5,24.7
	c1.7,1.7,2.5,3.8,2.5,6.4c0,1.7-0.4,3.2-1.1,4.5c-0.7,1.3-1.8,2.4-3.2,3.1c-1.4,0.8-2.8,1.2-4.4,1.2c-1.5,0-3-0.4-4.3-1.2
	c-1.3-0.8-2.4-1.9-3.2-3.3C6.1,34,5.7,32.5,5.7,31c0-1.5,0.4-3,1.2-4.4c0.8-1.4,1.8-2.5,3.2-3.2c1.3-0.8,2.8-1.2,4.3-1.2
	C16.8,22.2,18.9,23,20.5,24.7z M52.3,22.7c-1-1.2-2.2-2.2-3.5-2.8c-1.6-0.8-3.3-1.2-5.2-1.2c-3.3,0-6.2,1.2-8.6,3.6
	c-2.4,2.4-3.6,5.3-3.6,8.7c0,3.4,1.2,6.4,3.5,8.8c2.3,2.4,5.2,3.6,8.5,3.6c1.9,0,3.6-0.4,5.2-1.2c1.3-0.6,2.5-1.6,3.6-2.7v3.3h3.6
	V19.2h-3.6V22.7z M49.9,24.7c1.7,1.7,2.5,3.8,2.5,6.4c0,1.7-0.4,3.2-1.1,4.5c-0.7,1.3-1.8,2.4-3.2,3.1c-1.4,0.8-2.9,1.2-4.4,1.2
	c-1.5,0-3-0.4-4.3-1.2c-1.3-0.8-2.4-1.9-3.2-3.3c-0.8-1.4-1.2-2.9-1.2-4.4c0-1.5,0.4-3,1.2-4.4c0.8-1.4,1.8-2.5,3.2-3.2
	c1.3-0.8,2.8-1.2,4.3-1.2C46.2,22.2,48.3,23,49.9,24.7z M75.6,18.6c-1.9,0-3.6,0.4-5.2,1.2c-1.3,0.6-2.5,1.6-3.6,2.7V10.4h-3.7v32.3
	h3.7v-3.5c1,1.2,2.2,2.2,3.5,2.9c1.6,0.8,3.3,1.2,5.2,1.2c3.3,0,6.2-1.2,8.6-3.6c2.4-2.4,3.6-5.3,3.6-8.7c0-3.4-1.2-6.4-3.5-8.8
	C81.8,19.9,78.9,18.6,75.6,18.6z M83.9,30.9c0,1.5-0.4,3-1.2,4.4c-0.8,1.4-1.8,2.5-3.2,3.2c-1.3,0.8-2.8,1.2-4.3,1.2
	c-2.4,0-4.5-0.9-6.1-2.5c-1.7-1.7-2.5-3.8-2.5-6.4c0-1.7,0.4-3.2,1.1-4.5c0.7-1.3,1.8-2.4,3.2-3.2c1.4-0.8,2.9-1.2,4.4-1.2
	c1.5,0,2.9,0.4,4.3,1.2c1.3,0.8,2.4,1.9,3.2,3.3C83.5,27.9,83.9,29.4,83.9,30.9z M105.9,18.6c-1.9,0-3.6,0.4-5.2,1.2
	c-1.3,0.6-2.5,1.6-3.6,2.7V10.4h-3.7v32.3h3.7v-3.5c1,1.2,2.2,2.2,3.5,2.9c1.6,0.8,3.3,1.2,5.2,1.2c3.3,0,6.2-1.2,8.6-3.6
	c2.4-2.4,3.6-5.3,3.6-8.7c0-3.4-1.2-6.4-3.5-8.8C112.1,19.9,109.2,18.6,105.9,18.6z M114.2,30.9c0,1.5-0.4,3-1.2,4.4
	c-0.8,1.4-1.8,2.5-3.2,3.2c-1.3,0.8-2.8,1.2-4.3,1.2c-2.4,0-4.5-0.9-6.1-2.5c-1.7-1.7-2.5-3.8-2.5-6.4c0-1.7,0.4-3.2,1.1-4.5
	c0.7-1.3,1.8-2.4,3.2-3.2c1.4-0.8,2.9-1.2,4.4-1.2c1.5,0,2.9,0.4,4.3,1.2c1.3,0.8,2.4,1.9,3.2,3.3C113.8,27.9,114.2,29.4,114.2,30.9
	z M143.4,19.2v3.5c-1-1.2-2.2-2.2-3.5-2.8c-1.6-0.8-3.3-1.2-5.2-1.2c-3.3,0-6.2,1.2-8.6,3.6c-2.4,2.4-3.6,5.3-3.6,8.7
	c0,3.4,1.2,6.4,3.5,8.8c2.3,2.4,5.2,3.6,8.5,3.6c1.9,0,3.6-0.4,5.2-1.2c1.3-0.6,2.5-1.6,3.6-2.7v3.3h3.6V19.2H143.4z M143.6,31.1
	c0,1.7-0.4,3.2-1.1,4.5c-0.7,1.3-1.8,2.4-3.2,3.1c-1.4,0.8-2.9,1.2-4.4,1.2c-1.5,0-3-0.4-4.3-1.2c-1.3-0.8-2.4-1.9-3.2-3.3
	c-0.8-1.4-1.2-2.9-1.2-4.4c0-1.5,0.4-3,1.2-4.4c0.8-1.4,1.8-2.5,3.2-3.2c1.3-0.8,2.8-1.2,4.3-1.2c2.4,0,4.5,0.9,6.1,2.5
	C142.8,26.4,143.6,28.6,143.6,31.1z M168.5,14.4c0.3-0.4,0.6-0.9,0.6-1.6c0-0.5-0.1-1.3-1.3-2.4c-1.8-1.8-2.2-3.4-2.2-4.5
	c0-1.2,0.4-2.3,1.2-3.3c0.5-0.6,1-1.1,1.1-1.2l0.1-0.1l0,0c0.2-0.1,0.5-0.4,0.5-0.4l0.3-0.2l1.9,2.2l-1.1,0.9c0,0-0.4,0.4-0.6,0.6
	c-0.3,0.4-0.6,0.9-0.6,1.6c0,0.5,0.1,1.3,1.3,2.4c1.8,1.8,2.2,3.4,2.2,4.5c0,1.2-0.4,2.3-1.2,3.3c-0.5,0.6-1.1,1.1-1.3,1.3
	c-0.2,0.1-0.3,0.3-0.5,0.5c-0.3,0.4-0.6,0.9-0.6,1.6c0,0.5,0.1,1.3,1.3,2.4c1.8,1.8,2.2,3.4,2.2,4.5c0,1.2-0.4,2.3-1.2,3.3
	c-0.5,0.6-0.9,1-1.1,1.2c-0.2,0.2-0.7,0.5-0.7,0.5l-0.3,0.2l-1.9-2.2l1.1-0.8c0,0,0.1-0.1,0.2-0.1c0.1-0.1,0.3-0.3,0.4-0.5
	c0.3-0.4,0.6-0.9,0.6-1.6c0-0.5-0.1-1.3-1.3-2.4c-1.8-1.8-2.2-3.4-2.2-4.5c0-1.2,0.4-2.3,1.2-3.3c0.5-0.6,0.9-1,1.1-1.2l0,0
	C168,14.9,168.4,14.6,168.5,14.4z M176.9,14.4c0.3-0.4,0.6-0.9,0.6-1.6c0-0.5-0.1-1.3-1.3-2.4C174.4,8.7,174,7,174,5.9
	c0-1.2,0.4-2.3,1.2-3.3c0.5-0.6,1-1.1,1.1-1.2l0.1-0.1l0,0c0.2-0.1,0.5-0.4,0.5-0.4l0.3-0.2l1.9,2.2l-1.1,0.9c0,0-0.4,0.4-0.6,0.6
	c-0.3,0.4-0.6,0.9-0.6,1.6c0,0.5,0.1,1.3,1.3,2.4c1.8,1.8,2.2,3.4,2.2,4.5c0,1.2-0.4,2.3-1.2,3.3c-0.5,0.6-1.1,1.1-1.3,1.3
	c-0.2,0.1-0.3,0.3-0.5,0.5c-0.3,0.4-0.6,0.9-0.6,1.6c0,0.5,0.1,1.3,1.3,2.4c1.8,1.8,2.2,3.4,2.2,4.5c0,1.2-0.4,2.3-1.2,3.3
	c-0.5,0.7-1,1.1-1.1,1.2c-0.2,0.2-0.7,0.5-0.7,0.5l-0.3,0.2l-1.9-2.2l1.1-0.8c0,0,0.1-0.1,0.2-0.1c0.1-0.1,0.3-0.3,0.4-0.5
	c0.3-0.4,0.6-0.9,0.6-1.6c0-0.5-0.1-1.3-1.3-2.4c-1.8-1.8-2.2-3.4-2.2-4.5c0-1.2,0.4-2.3,1.2-3.3c0.5-0.6,0.9-1,1.1-1.2l0,0
	C176.5,14.9,176.8,14.6,176.9,14.4z M185.3,14.4c0.3-0.4,0.6-0.9,0.6-1.6c0-0.5-0.1-1.3-1.3-2.4c-1.8-1.8-2.2-3.4-2.2-4.5
	c0-1.2,0.4-2.3,1.2-3.3c0.5-0.6,1-1.1,1.1-1.2l0.1-0.1l0,0c0.2-0.1,0.5-0.4,0.5-0.4l0.3-0.2l1.9,2.2l-1.1,0.9c0,0-0.4,0.4-0.6,0.6
	c-0.3,0.4-0.6,0.9-0.6,1.6c0,0.5,0.1,1.3,1.3,2.4c1.8,1.8,2.2,3.4,2.2,4.5c0,1.2-0.4,2.3-1.2,3.3c-0.5,0.6-1.1,1.1-1.3,1.3
	c-0.2,0.1-0.3,0.3-0.5,0.5c-0.3,0.4-0.6,0.9-0.6,1.6c0,0.5,0.1,1.3,1.3,2.4c1.8,1.8,2.2,3.4,2.2,4.5c0,1.2-0.4,2.3-1.2,3.3
	c-0.5,0.7-1,1.1-1.1,1.2c-0.2,0.2-0.7,0.5-0.7,0.5l-0.3,0.2l-1.9-2.2l1.1-0.8c0,0,0.1-0.1,0.2-0.1c0.1-0.1,0.3-0.3,0.4-0.5
	c0.3-0.4,0.6-0.9,0.6-1.6c0-0.5-0.1-1.3-1.3-2.4c-1.8-1.8-2.2-3.4-2.2-4.5c0-1.2,0.4-2.3,1.2-3.3c0.5-0.6,0.9-1,1.1-1.2l0,0
	C184.9,14.9,185.2,14.6,185.3,14.4z M156.4,33.1v2.9h3.4l3.3,5.9l0.4,0.8l26.9,0l0.3,0.2l3.8-6.9h3.4v-2.9H156.4z M191.2,36.1
	l-1.5,2.7l0,0l-0.6,1h-23.8l-0.3-0.6l0,0l-1.8-3.2H191.2z"/>
</svg>
