<?xml version="1.0" encoding="utf-8"?>
<!-- Generator: Adobe Illustrator 19.2.0, SVG Export Plug-In . SVG Version: 6.00 Build 0)  -->
<svg version="1.1" id="Layer_1" xmlns="http://www.w3.org/2000/svg" xmlns:xlink="http://www.w3.org/1999/xlink" x="0px" y="0px"
	 viewBox="0 0 200 44" style="enable-background:new 0 0 200 44;" xml:space="preserve">
<style type="text/css">
	.st0{fill:none;}
	.st1{fill:#FFFFFF;}
</style>
<title>logo-dabba</title>
<path class="st0" d="M22.8,22.7c-0.9-1.2-2.1-2.1-3.5-2.8c-1.6-0.8-3.4-1.2-5.2-1.2c-3.2,0-6.3,1.3-8.6,3.6C3.2,24.6,2,27.7,2,30.9
	c0,3.3,1.2,6.4,3.5,8.8c2.2,2.3,5.3,3.7,8.5,3.6c1.8,0,3.6-0.4,5.2-1.2c1.3-0.7,2.6-1.6,3.6-2.7v3.3h3.6V10.4h-3.6V22.7z M20.5,24.7
	c1.7,1.7,2.6,4,2.5,6.4c0,1.6-0.4,3.1-1.1,4.5c-0.7,1.3-1.8,2.4-3.2,3.1c-1.3,0.8-2.9,1.2-4.4,1.2c-1.5,0-3-0.4-4.3-1.2
	c-1.3-0.8-2.4-1.9-3.2-3.3C6.1,34,5.7,32.5,5.7,31c0-1.5,0.4-3.1,1.2-4.4c0.7-1.4,1.8-2.5,3.2-3.2c1.3-0.8,2.8-1.2,4.3-1.2
	C16.7,22.1,18.9,23,20.5,24.7z M52.3,22.7c-0.9-1.2-2.1-2.1-3.5-2.8c-1.6-0.8-3.4-1.2-5.2-1.2c-3.2,0-6.3,1.3-8.6,3.6
	c-2.4,2.3-3.7,5.4-3.6,8.7c0,3.3,1.2,6.4,3.5,8.8c3.6,3.7,9.1,4.6,13.7,2.4c1.3-0.7,2.6-1.6,3.6-2.7v3.3h3.6V19.2h-3.6L52.3,22.7
	L52.3,22.7z M49.9,24.7c1.7,1.7,2.6,4,2.5,6.4c0,1.6-0.4,3.1-1.1,4.5c-0.7,1.3-1.8,2.4-3.2,3.1c-1.3,0.8-2.9,1.2-4.4,1.2
	c-1.5,0-3-0.4-4.3-1.2c-1.3-0.8-2.4-1.9-3.2-3.3c-1.6-2.7-1.6-6.1,0-8.8c0.7-1.4,1.8-2.5,3.2-3.2C42.8,21.4,47.1,21.9,49.9,24.7z
	 M75.6,18.6c-1.8,0-3.6,0.4-5.2,1.2c-1.3,0.7-2.6,1.6-3.6,2.7V10.4h-3.7v32.3h3.7v-3.5c1,1.2,2.2,2.2,3.5,2.9
	c1.6,0.8,3.4,1.2,5.2,1.2c3.2,0,6.3-1.3,8.6-3.6c2.4-2.3,3.7-5.4,3.6-8.7c0-3.3-1.2-6.4-3.5-8.8C81.9,19.9,78.8,18.6,75.6,18.6z
	 M83.9,30.9c0,1.5-0.4,3.1-1.2,4.4c-0.7,1.4-1.8,2.5-3.2,3.2c-1.3,0.8-2.8,1.2-4.3,1.2c-2.3,0-4.5-0.9-6.1-2.5
	c-1.7-1.7-2.6-4-2.5-6.4c0-1.6,0.4-3.1,1.1-4.5c0.7-1.3,1.9-2.5,3.2-3.2c1.3-0.8,2.9-1.2,4.4-1.2c1.5,0,3,0.4,4.3,1.2
	c1.3,0.8,2.4,1.9,3.2,3.3C83.5,27.8,83.9,29.3,83.9,30.9z M105.9,18.6c-1.8,0-3.6,0.4-5.2,1.2c-1.3,0.7-2.6,1.6-3.6,2.7V10.4h-3.7
	v32.3h3.7v-3.5c1,1.2,2.2,2.2,3.5,2.9c1.6,0.8,3.4,1.2,5.2,1.2c3.2,0,6.3-1.3,8.6-3.6c2.4-2.3,3.7-5.4,3.6-8.7
	c0-3.3-1.2-6.4-3.5-8.8C112.2,19.9,109.1,18.6,105.9,18.6z M114.2,30.9c0,1.5-0.4,3.1-1.2,4.4c-0.7,1.4-1.8,2.5-3.2,3.2
	c-1.3,0.8-2.8,1.2-4.3,1.2c-2.3,0-4.5-0.9-6.1-2.5c-1.7-1.7-2.6-4-2.5-6.4c0-1.6,0.4-3.1,1.1-4.5c0.7-1.3,1.9-2.5,3.2-3.2
	c1.3-0.8,2.9-1.2,4.4-1.2c1.5,0,3,0.4,4.3,1.2c1.3,0.8,2.4,1.9,3.2,3.3C113.8,27.8,114.2,29.3,114.2,30.9z M143.4,19.2v3.5
	c-0.9-1.2-2.1-2.1-3.5-2.8c-1.6-0.8-3.4-1.2-5.2-1.2c-3.2,0-6.3,1.3-8.6,3.6c-2.4,2.3-3.7,5.4-3.6,8.7c0,3.3,1.2,6.4,3.5,8.8
	c3.6,3.7,9.1,4.6,13.7,2.4c1.3-0.7,2.6-1.6,3.6-2.7v3.3h3.6V19.2H143.4L143.4,19.2z M143.6,31.1c0,1.6-0.4,3.1-1.1,4.5
	c-0.7,1.3-1.8,2.4-3.2,3.1c-1.3,0.8-2.9,1.2-4.4,1.2c-1.5,0-3-0.4-4.3-1.2c-1.3-0.8-2.4-1.9-3.2-3.3c-1.6-2.7-1.6-6.1,0-8.8
	c0.7-1.4,1.8-2.5,3.2-3.2c1.3-0.8,2.8-1.2,4.3-1.2c4.8,0,8.7,3.9,8.7,8.7C143.6,31,143.6,31,143.6,31.1z M168.5,14.4
	c0.4-0.4,0.6-1,0.6-1.6c0-1-0.5-1.8-1.3-2.4c-1.3-1.1-2.1-2.8-2.2-4.5c0-1.2,0.4-2.4,1.2-3.3c0.5-0.6,1-1.1,1.1-1.2l0.1-0.1l0,0
	c0.2-0.1,0.3-0.2,0.5-0.4l0.3-0.2l1.9,2.2l-1.1,0.9L169,4.4c-0.4,0.4-0.6,1-0.6,1.6c0,1,0.5,1.8,1.3,2.4c1.3,1.1,2.1,2.8,2.2,4.5
	c0,1.2-0.4,2.4-1.2,3.3c-0.4,0.5-0.8,0.9-1.3,1.3c-0.2,0.1-0.4,0.3-0.5,0.5c-0.4,0.4-0.6,1-0.6,1.6c0,1,0.5,1.8,1.3,2.4
	c1.3,1.1,2.1,2.8,2.2,4.5c0,1.2-0.4,2.4-1.2,3.3c-0.5,0.6-0.9,1-1.1,1.2c-0.2,0.2-0.5,0.4-0.7,0.5l-0.3,0.2l-1.9-2.2l1.1-0.8
	c0.1-0.1,0.1-0.1,0.2-0.1c0.2-0.1,0.3-0.3,0.4-0.5c0.4-0.4,0.6-1,0.6-1.6c0-1-0.5-1.8-1.3-2.4c-1.3-1.1-2.1-2.8-2.2-4.5
	c0-1.2,0.4-2.4,1.2-3.3c0.5-0.6,0.9-1,1.1-1.2l0,0C168,14.9,168.3,14.7,168.5,14.4z M176.9,14.4c0.4-0.4,0.6-1,0.6-1.6
	c0-1-0.5-1.8-1.3-2.4c-1.3-1.1-2.1-2.8-2.2-4.5c0-1.2,0.4-2.4,1.2-3.3c0.5-0.6,1-1.1,1.1-1.2l0.1-0.1l0,0c0.2-0.1,0.3-0.2,0.5-0.4
	l0.3-0.2l1.9,2.2L178,3.8l-0.6,0.6c-0.4,0.4-0.6,1-0.6,1.6c0,1,0.5,1.8,1.3,2.4c1.3,1.1,2.1,2.8,2.2,4.5c0,1.2-0.4,2.4-1.2,3.3
	c-0.4,0.5-0.8,0.9-1.3,1.3c-0.2,0.1-0.4,0.3-0.5,0.5c-0.4,0.4-0.6,1-0.6,1.6c0,1,0.5,1.8,1.3,2.4c1.3,1.1,2.1,2.8,2.2,4.5
	c0,1.2-0.4,2.4-1.2,3.3c-0.3,0.4-0.7,0.8-1.1,1.2c-0.2,0.2-0.5,0.4-0.7,0.5l-0.3,0.2l-1.9-2.2l1.1-0.8c0.1-0.1,0.1-0.1,0.2-0.1
	c0.2-0.1,0.3-0.3,0.4-0.5c0.4-0.4,0.6-1,0.6-1.6c0-1-0.5-1.8-1.3-2.4c-1.3-1.1-2.1-2.8-2.2-4.5c0-1.2,0.4-2.4,1.2-3.3
	c0.5-0.6,0.9-1,1.1-1.2l0,0C176.4,14.9,176.7,14.7,176.9,14.4z M185.3,14.4c0.4-0.4,0.6-1,0.6-1.6c0-1-0.5-1.8-1.3-2.4
	c-1.3-1.1-2.1-2.8-2.2-4.5c0-1.2,0.4-2.4,1.2-3.3c0.5-0.6,1-1.1,1.1-1.2l0.1-0.1l0,0c0.2-0.1,0.3-0.2,0.5-0.4l0.3-0.2l1.9,2.2
	l-1.1,0.9l-0.6,0.6c-0.4,0.4-0.6,1-0.6,1.6c0,1,0.5,1.8,1.3,2.4c1.3,1.1,2.1,2.8,2.2,4.5c0,1.2-0.4,2.4-1.2,3.3
	c-0.4,0.5-0.8,0.9-1.3,1.3c-0.2,0.1-0.4,0.3-0.5,0.5c-0.4,0.4-0.6,1-0.6,1.6c0,1,0.5,1.8,1.3,2.4c1.3,1.1,2.1,2.8,2.2,4.5
	c0,1.2-0.4,2.4-1.2,3.3c-0.3,0.4-0.7,0.8-1.1,1.2c-0.2,0.2-0.5,0.4-0.7,0.5l-0.3,0.2l-1.9-2.2l1.1-0.8c0.1-0.1,0.1-0.1,0.2-0.1
	c0.2-0.1,0.3-0.3,0.4-0.5c0.4-0.4,0.6-1,0.6-1.6c0-1-0.5-1.8-1.3-2.4c-1.3-1.1-2.1-2.8-2.2-4.5c0-1.2,0.4-2.4,1.2-3.3
	c0.5-0.6,0.9-1,1.1-1.2l0,0C184.8,14.9,185.1,14.7,185.3,14.4L185.3,14.4z M156.4,33.1V36h3.4l3.3,5.9l0.4,0.8h26.9l0.3,0.2l3.8-6.9
	h3.4v-2.9H156.4z M191.2,36.1l-1.5,2.7l0,0l-0.6,1h-23.8l-0.3-0.6l0,0l-1.8-3.2L191.2,36.1L191.2,36.1z"/>
<g>
	<path class="st1" d="M123.3,3.9c0.9-0.1,1.8,0.3,2.4,1c0.6,0.9,0.9,1.9,0.8,3c0.1,1.1-0.2,2.1-0.9,3c-0.6,0.7-1.5,1.1-2.4,1.1
		c-0.5,0-1-0.1-1.5-0.3c-0.4-0.2-0.8-0.6-1.1-1h-0.1l-0.2,1.2H120V0.7h0.7v2.8c0,0.4,0,0.8,0,1.2v0.6h0c0.3-0.4,0.6-0.8,1.1-1
		C122.3,4,122.8,3.9,123.3,3.9z M123.3,4.6c-0.8-0.1-1.5,0.2-2,0.8c-0.5,0.8-0.7,1.7-0.6,2.6v0.1c-0.1,0.9,0.1,1.8,0.6,2.5
		c0.5,0.5,1.2,0.8,1.9,0.8c0.8,0,1.5-0.3,1.9-0.9c0.5-0.8,0.7-1.7,0.6-2.5C125.9,5.7,125,4.5,123.3,4.6L123.3,4.6z"/>
	<path class="st1" d="M131.9,12c-1,0.1-2-0.3-2.7-1c-0.7-0.8-1-1.9-0.9-2.9c-0.1-1.1,0.3-2.1,0.9-3c0.6-0.7,1.5-1.1,2.4-1.1
		c0.8,0,1.6,0.3,2.2,1c0.6,0.7,0.9,1.7,0.8,2.6v0.6H129c-0.1,0.9,0.2,1.7,0.8,2.4c0.5,0.6,1.3,0.9,2.1,0.8c0.4,0,0.8,0,1.2-0.1
		c0.4-0.1,0.9-0.2,1.3-0.4v0.6c-0.4,0.2-0.8,0.3-1.2,0.4C132.7,12,132.3,12,131.9,12z M131.7,4.5c-0.7,0-1.3,0.2-1.8,0.7
		c-0.5,0.6-0.8,1.4-0.8,2.1h4.8c0-0.8-0.2-1.5-0.6-2.1C132.9,4.8,132.3,4.5,131.7,4.5z"/>
	<path class="st1" d="M138.9,11.4c0.4,0,0.8,0,1.2-0.1v0.6c-0.4,0.1-0.8,0.2-1.2,0.2c-0.6,0-1.1-0.2-1.5-0.6
		c-0.4-0.5-0.5-1.1-0.5-1.7v-5h-1.2V4.3l1.2-0.3l0.4-1.8h0.4v1.9h2.3v0.6h-2.3v4.9c0,0.5,0.1,0.9,0.3,1.3
		C138.1,11.2,138.5,11.4,138.9,11.4z"/>
	<path class="st1" d="M146.5,11.9l-0.2-1.2h-0.1c-0.3,0.4-0.7,0.8-1.2,1.1c-0.5,0.2-1,0.3-1.5,0.3c-0.6,0-1.3-0.2-1.8-0.6
		c-0.4-0.4-0.7-1-0.6-1.6c0-0.7,0.3-1.4,0.9-1.8c0.8-0.5,1.8-0.7,2.8-0.7l1.5,0V6.8c0-0.6-0.1-1.2-0.4-1.7c-0.4-0.4-0.9-0.6-1.5-0.6
		c-0.8,0-1.6,0.2-2.2,0.6l-0.3-0.6c0.8-0.4,1.7-0.6,2.5-0.6c0.7-0.1,1.4,0.2,1.9,0.7c0.5,0.6,0.7,1.3,0.6,2.1v5.2H146.5L146.5,11.9z
		 M143.6,11.4c1.3,0.1,2.6-0.8,2.7-2.2c0-0.2,0-0.3,0-0.5V7.9l-1.4,0.1c-0.8,0-1.6,0.2-2.3,0.5c-0.5,0.3-0.7,0.8-0.7,1.4
		c0,0.4,0.1,0.8,0.4,1.1C142.7,11.2,143.1,11.4,143.6,11.4L143.6,11.4z"/>
</g>
</svg>
