<svg xmlns="http://www.w3.org/2000/svg" width="24" height="24" viewBox="0 0 24 24"><g stroke="#000" stroke-linecap="round" stroke-linejoin="round" stroke-miterlimit="10" fill="none"><path d="M21.5 21.506c0 1.105-.896 2-2 2h-14c-1.104 0-2-.895-2-2v-19c0-1.104.896-2 2-2h14c1.104 0 2 .896 2 2v19zM2.5 4.506h2M2.5 7.506h2M2.5 10.506h2M2.5 13.506h2M2.5 16.506h2M2.5 19.506h2M6.478 7.447l2.298 2.298c.761.761 1.995.761 2.757 0 .761-.761.761-1.996 0-2.757l-2.299-2.298M7.855 6.069l9.668 9.668M14.899 9.746l-6.045 6.044"/><path d="M15.818 6.069c.761-.761 1.995-.761 2.757 0 .761.761.761 1.996 0 2.757l-.919.919c-.762.761-1.996.761-2.757 0-.762-.761-.762-1.996 0-2.757l.919-.919z"/></g></svg>