<?xml version="1.0" encoding="utf-8"?>
<!-- Generator: Adobe Illustrator 19.1.0, SVG Export Plug-In . SVG Version: 6.00 Build 0)  -->
<svg version="1.1" id="Outline_Icons" xmlns="http://www.w3.org/2000/svg" xmlns:xlink="http://www.w3.org/1999/xlink" x="0px"
	 y="0px" viewBox="-387 289 24 24" style="enable-background:new -387 289 24 24;" xml:space="preserve">
<g>
	<path d="M-365.5,297h-19c-0.3,0-0.5,0.2-0.5,0.5v15c0,0.3,0.2,0.5,0.5,0.5h19c0.3,0,0.5-0.2,0.5-0.5v-15
		C-365,297.2-365.2,297-365.5,297z M-366,312h-18v-14h18V312z"/>
	<path d="M-379.5,296c0.3,0,0.5-0.2,0.5-0.5V294c0-2.2,1.8-4,4-4s4,1.8,4,4v1.5c0,0.3,0.2,0.5,0.5,0.5s0.5-0.2,0.5-0.5V294
		c0-2.8-2.2-5-5-5s-5,2.2-5,5v1.5C-380,295.8-379.8,296-379.5,296z"/>
</g>
</svg>
