<?xml version="1.0" encoding="utf-8"?>
<!-- Generator: Adobe Illustrator 19.1.0, SVG Export Plug-In . SVG Version: 6.00 Build 0)  -->
<svg version="1.1" id="Layer_1" xmlns="http://www.w3.org/2000/svg" xmlns:xlink="http://www.w3.org/1999/xlink" x="0px" y="0px"
	 viewBox="-387 289 24 24" style="enable-background:new -387 289 24 24;" xml:space="preserve">
<style type="text/css">
	.st0{fill:none;stroke:#000000;stroke-linecap:round;stroke-linejoin:round;stroke-miterlimit:10;}
</style>
<g>
	<path class="st0" d="M-376.3,291c-4.8,0-8.7,3.9-8.7,8.7v7.4c0,2.2,1.8,3.9,3.9,3.9c2.2,0,3.9-1.8,3.9-3.9c0-2.2,1.8-3.9,3.9-3.9
		h2.2c3.4,0,6.1-2.7,6.1-6.1c0-3.4-2.7-6.1-6.1-6.1H-376.3z M-375.4,293.6c-3.9,0-7,3.1-7,7v1.3c0,1.7,1.3,2.6,2.2,2.6
		c1.7,0,0.1-3.9,6.1-3.9h3.1c1.9,0,3.5-1.6,3.5-3.5c0-1.9-1.6-3.5-3.5-3.5H-375.4z"/>
	<circle class="st0" cx="-381.1" cy="307.1" r="0.9"/>
</g>
<line class="st0" x1="-386" y1="312" x2="-364" y2="290"/>
</svg>
