<svg xmlns="http://www.w3.org/2000/svg" width="24" height="24" viewBox="0 0 24 24"><g stroke="#000" stroke-linecap="round" stroke-linejoin="round" stroke-miterlimit="10" fill="none"><path d="M8.5 20.5c0 1.657-1.343 3-3 3-1.658 0-3-1.343-3-3M17.296 16h2.204c2.209 0 4 1.566 4 3.5h-8.704"/><path d="M11.5 14.5c0 .552-.448 1-1 1h-7l-2-2.001v-.999h10v2zM19.5 13c-1.105 0-2-.896-2-2s.895-2 2-2v4zM14.5 7.5h1.5c.828 0 1.5.672 1.5 1.5v5.5c0 3.314-2.687 6-6 6h-11c0-2.762 2.238-5 5-5h2.5c2.582 0 4.707 1.957 4.972 4.469l.021.344M16.674 19.5c-.11.314-.174.648-.174 1 0 1.656 1.342 3 3 3 1.657 0 3-1.344 3-3 0-.352-.062-.686-.175-1"/></g></svg>